<?xml version="1.0" encoding="utf-8"?>
<!-- Generator: Adobe Illustrator 25.3.0, SVG Export Plug-In . SVG Version: 6.00 Build 0)  -->
<svg version="1.1" id="Layer_1" xmlns="http://www.w3.org/2000/svg" xmlns:xlink="http://www.w3.org/1999/xlink" x="0px" y="0px"
	 viewBox="0 0 305 66" style="enable-background:new 0 0 305 66;" xml:space="preserve">
<style type="text/css">
	.st0{fill:#000000;}
	.st1{fill:#009245;}
	.st2{fill:none;}
	
	@media (prefers-color-scheme: dark) {
		.st0{fill:#FFFFFF;}
	}
</style>
<g>
	<g>
		<path class="st0" d="M26.02,7.8H39.7c2.02,0,3.24,0,4.1,0.07c9.94,1.01,14.98,8.57,14.98,16.27c0,7.63-4.97,15.34-14.98,16.2
			c-0.86,0.07-2.09,0.07-4.1,0.07h-3.96c-1.22,0-2.02,0.86-2.02,2.02v14.83c0,0.58-0.36,0.94-0.94,0.94h-6.77
			c-0.58,0-0.94-0.36-0.94-0.94V8.73C25.08,8.16,25.44,7.8,26.02,7.8z M33.72,30.26c0,1.22,0.79,2.02,2.02,2.02h5.98
			c10.94,0,10.87-16.35,0-16.35h-5.98c-1.22,0-2.02,0.86-2.02,2.09V30.26z"/>
		<path class="st0" d="M68.28,57.27V8.73c0-0.58,0.36-0.94,0.94-0.94h6.77c0.58,0,0.94,0.36,0.94,0.94v39.39
			c0,1.22,0.79,2.02,2.02,2.02h21.03c0.58,0,0.94,0.36,0.94,0.94v6.19c0,0.58-0.36,0.94-0.94,0.94H69.22
			C68.64,58.2,68.28,57.84,68.28,57.27z"/>
		<path class="st0" d="M128.62,59.93c-10.15,0-20.38-6.98-20.38-20.88V8.73c0-0.58,0.36-0.94,0.94-0.94h6.77
			c0.58,0,0.94,0.36,0.94,0.94v30.31c0,7.85,5.91,11.74,11.74,11.74c5.9,0,11.74-3.89,11.74-11.74V8.73c0-0.58,0.36-0.94,0.94-0.94
			h6.77c0.5,0,0.94,0.36,0.94,0.94v30.31C148.99,52.95,138.84,59.93,128.62,59.93z"/>
		<path class="st0" d="M184.06,6.72c5.04,0,9.87,2.02,14.26,4.54c0.5,0.29,0.5,0.86,0.22,1.3l-3.89,5.54
			c-0.36,0.5-0.79,0.58-1.3,0.22c-2.16-1.58-5.4-3.02-9.22-3.02c-22.68,0-22.68,35.43,0,35.43c2.81,0,8.42-0.43,8.42-4.32v-5.54
			c0-1.22-0.79-2.09-2.02-2.09h-8.86c-0.58,0-0.94-0.36-0.94-0.94v-6.19c0-0.58,0.36-0.94,0.94-0.94h18.65
			c0.58,0,0.94,0.36,0.94,0.94V52.3c0,0.58-0.29,1.15-0.72,1.51c-4.18,3.1-10.23,5.47-16.49,5.47c-17.35,0-25.99-13.18-25.99-26.28
			C158.06,19.82,166.7,6.72,184.06,6.72z"/>
		<path class="st0" d="M210.77,50.93l5.26-4.1c0.43-0.29,0.94-0.29,1.3,0.14c3.17,3.67,7.99,4.82,12.67,4.82
			c3.82,0,9.5-1.44,9.5-6.19c0-9.65-28.01-8.64-28.01-25.13c0-9.86,8.21-14.76,17.28-14.76c6.19,0,12.24,2.81,16.99,6.77
			c0.43,0.36,0.43,0.94,0.07,1.3l-4.39,4.97c-0.43,0.43-0.94,0.43-1.3,0.07c-3.24-2.88-7.27-4.61-11.66-4.61
			c-4.32,0-8.5,1.51-8.5,6.55c0,8.64,28.01,7.49,28.01,25.13c0,9.79-9.65,14.4-18.29,14.4c-7.13,0-14.47-2.45-19.08-8.07
			C210.26,51.79,210.33,51.29,210.77,50.93z"/>
		<path class="st0" d="M255.55,7.8h7.42c0.58,0,1.15,0.36,1.37,0.79l10.3,18.87c0.29,0.5,0.65,0.79,1.01,0.79
			c0.29,0,0.65-0.29,0.94-0.79L286.8,8.59c0.22-0.43,0.86-0.79,1.37-0.79h7.42c0.58,0,0.72,0.36,0.5,0.79l-15.19,27.79
			c-0.58,1.08-1.01,2.59-1.01,3.82v17.07c0,0.58-0.36,0.94-0.94,0.94h-6.77c-0.58,0-0.94-0.36-0.94-0.94V40.2
			c0-1.22-0.36-2.74-0.94-3.82L255.05,8.59C254.83,8.16,254.97,7.8,255.55,7.8z"/>
	</g>
	<path class="st1" d="M11.9,58.5h-0.17c-1.61,0-2.92-1.31-2.92-2.92V10.42c0-1.61,1.31-2.92,2.92-2.92h0.17
		c1.61,0,2.92,1.31,2.92,2.92v45.17C14.82,57.19,13.51,58.5,11.9,58.5z"/>
</g>
<rect x="23" y="35" class="st2" width="6.67" height="0"/>
</svg>
