<?xml version="1.0" encoding="utf-8"?>
<!-- Generator: Adobe Illustrator 25.3.0, SVG Export Plug-In . SVG Version: 6.00 Build 0)  -->
<svg version="1.1" id="Layer_1" xmlns="http://www.w3.org/2000/svg" xmlns:xlink="http://www.w3.org/1999/xlink" x="0px" y="0px"
	 viewBox="0 0 298 66" style="enable-background:new 0 0 298 66;" xml:space="preserve">
<style type="text/css">
	.st0{fill:#000000;}
	.st1{fill:#009245;}
	@media (prefers-color-scheme: dark) {
		.st0{fill:#FFFFFF;}
	}
</style>
<g>
	<path class="st0" d="M30.2,8.93h13.68c2.02,0,3.24,0,4.1,0.07c9.94,1.01,14.98,8.57,14.98,16.27c0,7.63-4.97,15.34-14.98,16.2
		c-0.86,0.07-2.09,0.07-4.1,0.07h-3.96c-1.22,0-2.02,0.86-2.02,2.02V58.4c0,0.58-0.36,0.94-0.94,0.94H30.2
		c-0.58,0-0.94-0.36-0.94-0.94V9.87C29.26,9.29,29.62,8.93,30.2,8.93z M37.9,31.39c0,1.22,0.79,2.02,2.02,2.02h5.98
		c10.94,0,10.87-16.34,0-16.34h-5.98c-1.22,0-2.02,0.86-2.02,2.09V31.39z"/>
	<path class="st0" d="M72.46,58.4V9.87c0-0.58,0.36-0.94,0.94-0.94h6.77c0.58,0,0.94,0.36,0.94,0.94v39.39
		c0,1.22,0.79,2.02,2.02,2.02h21.03c0.58,0,0.94,0.36,0.94,0.94v6.19c0,0.58-0.36,0.94-0.94,0.94H73.4
		C72.82,59.33,72.46,58.97,72.46,58.4z"/>
	<path class="st0" d="M110.62,58.47l22.75-49.61c0.14-0.36,0.65-0.65,1.08-0.65c0.43,0,0.86,0.29,1.01,0.65l22.75,49.61
		c0.21,0.5,0,0.87-0.58,0.87h-7.06c-0.58,0-1.15-0.36-1.37-0.87l-2.02-4.39c-0.5-1.08-1.66-1.8-2.88-1.8h-19.8
		c-1.22,0-2.38,0.72-2.88,1.8l-2.02,4.39c-0.22,0.5-0.79,0.87-1.3,0.87h-7.13C110.62,59.33,110.41,58.97,110.62,58.47z
		 M128.26,44.21h12.38c1.22,0,1.66-0.72,1.15-1.87l-6.48-14.11c-0.29-0.58-0.58-0.86-0.86-0.86s-0.58,0.29-0.86,0.86l-6.55,14.11
		C126.54,43.49,127.04,44.21,128.26,44.21z"/>
	<path class="st0" d="M166.64,9.87c0-0.58,0.36-0.94,0.94-0.94h1.08c0.5,0,1.15,0.29,1.51,0.65l27.58,29.59
		c0.36,0.36,0.58,0.5,0.87,0.5c0.29,0,0.5-0.36,0.5-1.08V9.87c0-0.58,0.36-0.94,0.94-0.94h6.77c0.58,0,0.94,0.36,0.94,0.94V58.4
		c0,0.58-0.36,0.94-0.94,0.94h-1.01c-0.58,0-1.22-0.29-1.58-0.72l-27.58-29.67c-0.29-0.36-0.58-0.5-0.86-0.5
		c-0.29,0-0.5,0.36-0.5,1.08V58.4c0,0.58-0.36,0.94-0.94,0.94h-6.77c-0.58,0-0.94-0.36-0.94-0.94V9.87z"/>
	<path class="st0" d="M218.69,9.87c0-0.58,0.36-0.94,0.94-0.94h30.75c0.58,0,0.94,0.36,0.94,0.94v6.19c0,0.58-0.36,0.94-0.94,0.94
		h-21.03c-1.22,0-2.02,0.79-2.02,2.02v9.07c0,1.22,0.79,2.02,2.02,2.02h15.84c0.58,0,0.94,0.36,0.94,0.94v6.19
		c0,0.58-0.36,0.94-0.94,0.94h-15.84c-1.22,0-2.02,0.79-2.02,2.02v9.07c0,1.22,0.79,2.02,2.02,2.02h21.03
		c0.58,0,0.94,0.36,0.94,0.94v6.19c0,0.58-0.36,0.94-0.94,0.94h-30.75c-0.58,0-0.94-0.36-0.94-0.94V9.87z"/>
	<path class="st0" d="M260.81,58.4V9.87c0-0.58,0.36-0.94,0.94-0.94h6.77c0.58,0,0.94,0.36,0.94,0.94v39.39
		c0,1.22,0.79,2.02,2.02,2.02h21.03c0.58,0,0.94,0.36,0.94,0.94v6.19c0,0.58-0.36,0.94-0.94,0.94h-30.75
		C261.17,59.33,260.81,58.97,260.81,58.4z"/>
</g>
<path class="st1" d="M10.5,59L10.5,59C8.57,59,7,57.43,7,55.5v-43C7,10.57,8.57,9,10.5,9h0c1.93,0,3.5,1.57,3.5,3.5v43
	C14,57.43,12.43,59,10.5,59z"/>
</svg>
